<?xml version="1.0" encoding="UTF-8" standalone="no"?><!-- Generator: Gravit.io --><svg xmlns="http://www.w3.org/2000/svg" xmlns:xlink="http://www.w3.org/1999/xlink" style="isolation:isolate" viewBox="0 0 192 192" width="192pt" height="192pt"><defs><clipPath id="_clipPath_pexywcs2uoj4u6lgJq9eG3yLY3njfRVR"><rect width="192" height="192"/></clipPath></defs><g clip-path="url(#_clipPath_pexywcs2uoj4u6lgJq9eG3yLY3njfRVR)"><path d=" M 29.781 135.641 L 29.781 79.288 L 7.436 79.288 L 7.436 59.341 L 77.85 59.341 L 77.85 79.288 L 55.505 79.288 L 55.505 135.641 L 29.781 135.641 L 29.781 135.641 Z  M 112.948 137.385 L 112.948 137.385 Q 103.465 137.385 94.473 135.26 L 94.473 135.26 L 94.473 135.26 Q 85.48 133.134 79.703 129.537 L 79.703 129.537 L 87.987 110.789 L 87.987 110.789 Q 93.437 113.95 100.195 115.858 L 100.195 115.858 L 100.195 115.858 Q 106.953 117.765 113.166 117.765 L 113.166 117.765 L 113.166 117.765 Q 118.507 117.765 120.796 116.73 L 120.796 116.73 L 120.796 116.73 Q 123.085 115.694 123.085 113.623 L 123.085 113.623 L 123.085 113.623 Q 123.085 111.225 120.088 110.026 L 120.088 110.026 L 120.088 110.026 Q 117.09 108.827 110.223 107.41 L 110.223 107.41 L 110.223 107.41 Q 101.394 105.557 95.508 103.432 L 95.508 103.432 L 95.508 103.432 Q 89.622 101.306 85.262 96.456 L 85.262 96.456 L 85.262 96.456 Q 80.902 91.605 80.902 83.321 L 80.902 83.321 L 80.902 83.321 Q 80.902 76.127 84.935 70.241 L 84.935 70.241 L 84.935 70.241 Q 88.968 64.355 96.98 60.976 L 96.98 60.976 L 96.98 60.976 Q 104.991 57.597 116.436 57.597 L 116.436 57.597 L 116.436 57.597 Q 124.284 57.597 131.86 59.287 L 131.86 59.287 L 131.86 59.287 Q 139.435 60.976 145.212 64.246 L 145.212 64.246 L 137.473 82.885 L 137.473 82.885 Q 126.246 77.217 116.218 77.217 L 116.218 77.217 L 116.218 77.217 Q 106.299 77.217 106.299 82.013 L 106.299 82.013 L 106.299 82.013 Q 106.299 84.302 109.242 85.447 L 109.242 85.447 L 109.242 85.447 Q 112.185 86.591 118.943 87.899 L 118.943 87.899 L 118.943 87.899 Q 127.663 89.534 133.658 91.66 L 133.658 91.66 L 133.658 91.66 Q 139.653 93.785 144.068 98.581 L 144.068 98.581 L 144.068 98.581 Q 148.482 103.377 148.482 111.661 L 148.482 111.661 L 148.482 111.661 Q 148.482 118.855 144.449 124.687 L 144.449 124.687 L 144.449 124.687 Q 140.416 130.518 132.404 133.952 L 132.404 133.952 L 132.404 133.952 Q 124.393 137.385 112.948 137.385 L 112.948 137.385 L 112.948 137.385 Z  M 168.647 136.731 L 168.647 136.731 Q 162.434 136.731 158.347 132.753 L 158.347 132.753 L 158.347 132.753 Q 154.259 128.774 154.259 122.561 L 154.259 122.561 L 154.259 122.561 Q 154.259 116.348 158.347 112.479 L 158.347 112.479 L 158.347 112.479 Q 162.434 108.609 168.647 108.609 L 168.647 108.609 L 168.647 108.609 Q 174.86 108.609 178.948 112.479 L 178.948 112.479 L 178.948 112.479 Q 183.035 116.348 183.035 122.561 L 183.035 122.561 L 183.035 122.561 Q 183.035 128.774 178.948 132.753 L 178.948 132.753 L 178.948 132.753 Q 174.86 136.731 168.647 136.731 L 168.647 136.731 L 168.647 136.731 Z " fill="rgb(0,86,179)"/></g></svg>