<?xml version="1.0" encoding="UTF-8" standalone="no"?><!-- Generator: Gravit.io --><svg xmlns="http://www.w3.org/2000/svg" xmlns:xlink="http://www.w3.org/1999/xlink" style="isolation:isolate" viewBox="0 0 51 51" width="51pt" height="51pt"><defs><clipPath id="_clipPath_e1nXwNP88Lz35AHYyHD3H89oSRt1FULr"><rect width="51" height="51"/></clipPath></defs><g clip-path="url(#_clipPath_e1nXwNP88Lz35AHYyHD3H89oSRt1FULr)"><path d=" M 0 0 L 51 0 L 51 51 L 0 51 L 0 0 Z " fill="rgb(0,0,0)"/><path d=" M 25.229 10.128 L 24.709 17.98 L 18.677 17.98 L 18.677 42.42 L 9.785 42.42 L 9.785 17.98 L 3.389 17.98 L 3.909 10.128 L 25.229 10.128 L 25.229 10.128 Z  M 25.801 19.852 L 25.801 19.852 Q 25.801 15.224 28.505 12.416 L 28.505 12.416 L 28.505 12.416 Q 31.209 9.608 35.915 9.608 L 35.915 9.608 L 35.915 9.608 Q 40.621 9.608 45.561 10.544 L 45.561 10.544 L 44.521 18.864 L 44.521 18.864 Q 39.373 17.668 37.449 17.668 L 37.449 17.668 L 37.449 17.668 Q 35.005 17.668 35.005 19.644 L 35.005 19.644 L 35.005 19.644 Q 35.005 20.424 36.175 21.152 L 36.175 21.152 L 36.175 21.152 Q 37.345 21.88 39.009 22.686 L 39.009 22.686 L 39.009 22.686 Q 40.673 23.492 42.337 24.61 L 42.337 24.61 L 42.337 24.61 Q 44.001 25.728 45.171 27.808 L 45.171 27.808 L 45.171 27.808 Q 46.341 29.888 46.341 32.592 L 46.341 32.592 L 46.341 32.592 Q 46.341 37.532 43.689 40.236 L 43.689 40.236 L 43.689 40.236 Q 41.037 42.94 36.175 42.94 L 36.175 42.94 L 36.175 42.94 Q 31.313 42.94 26.685 41.432 L 26.685 41.432 L 27.257 33.684 L 27.257 33.684 Q 32.821 35.296 35.005 35.296 L 35.005 35.296 L 35.005 35.296 Q 37.189 35.296 37.189 33.372 L 37.189 33.372 L 37.189 33.372 Q 37.189 32.384 36.019 31.552 L 36.019 31.552 L 36.019 31.552 Q 34.849 30.72 33.185 29.888 L 33.185 29.888 L 33.185 29.888 Q 31.521 29.056 29.831 27.964 L 29.831 27.964 L 29.831 27.964 Q 28.141 26.872 26.971 24.792 L 26.971 24.792 L 26.971 24.792 Q 25.801 22.712 25.801 19.852 L 25.801 19.852 L 25.801 19.852 Z " fill="rgb(255,255,255)"/></g></svg>