<svg width="150" height="150" viewBox="0 0 150 150" fill="none" xmlns="http://www.w3.org/2000/svg">
<path d="M0 0H150V150H0V0Z" fill="#171717"/>
<path d="M50.144 138.052C39.086 138.052 31.049 134.86 26.033 128.476C21.131 121.978 18.68 113.542 18.68 103.168V73.414H7.394V51.526L20.39 50.5L23.81 28.27H48.092V50.5H67.586V73.414H48.092V102.655C48.092 107.329 49.118 110.578 51.17 112.402C53.222 114.226 55.616 115.138 58.352 115.138C59.72 115.138 61.031 115.024 62.285 114.796C63.653 114.454 64.85 114.112 65.876 113.77L70.322 134.974C68.156 135.658 65.42 136.342 62.114 137.026C58.808 137.71 54.818 138.052 50.144 138.052Z" fill="white"/>
<path d="M104.629 138.052C99.1569 138.052 93.3429 136.969 87.1869 134.803C81.1449 132.523 75.9009 129.616 71.4549 126.082L84.4509 107.956C92.2029 113.656 99.1569 116.506 105.313 116.506C108.391 116.506 110.557 116.107 111.811 115.309C113.179 114.397 113.863 113.086 113.863 111.376C113.863 109.096 112.21 107.329 108.904 106.075C105.598 104.707 101.779 103.168 97.4469 101.458C94.1409 100.09 90.8349 98.38 87.5289 96.328C84.3369 94.162 81.6579 91.426 79.4919 88.12C77.3259 84.814 76.2429 80.824 76.2429 76.15C76.2429 67.714 79.3779 60.988 85.6479 55.972C91.9179 50.956 100.069 48.448 110.101 48.448C117.169 48.448 123.211 49.645 128.227 52.039C133.357 54.319 137.803 56.884 141.565 59.734L128.569 77.176C125.491 74.896 122.47 73.129 119.506 71.875C116.542 70.621 113.749 69.994 111.127 69.994C106.111 69.994 103.603 71.59 103.603 74.782C103.603 76.948 105.142 78.658 108.22 79.912C111.412 81.052 115.117 82.42 119.335 84.016C122.755 85.27 126.118 86.923 129.424 88.975C132.844 91.027 135.637 93.706 137.803 97.012C140.083 100.318 141.223 104.536 141.223 109.666C141.223 117.646 138.088 124.372 131.818 129.844C125.662 135.316 116.599 138.052 104.629 138.052Z" fill="white"/>
</svg>
