<?xml version="1.0" encoding="UTF-8" standalone="no"?>
<!-- Generator: Gravit.io -->
<svg xmlns="http://www.w3.org/2000/svg" xmlns:xlink="http://www.w3.org/1999/xlink" style="isolation:isolate" viewBox="0 0 192 192" width="192pt" height="192pt"><defs><clipPath id="_clipPath_u4GjvRMr7eXseGsnkODfJQaQHupI2JVx"><rect width="192" height="192"/></clipPath></defs><g clip-path="url(#_clipPath_u4GjvRMr7eXseGsnkODfJQaQHupI2JVx)"><path d=" M 81.606 54.88 L 84.286 84.36 L 69.01 85.7 L 66.33 70.156 L 52.528 70.156 L 52.528 126.704 L 66.732 126.704 L 66.732 141.98 L 21.172 141.98 L 21.172 126.704 L 34.572 126.704 L 34.572 70.156 L 20.77 70.156 L 18.09 85.7 L 2.814 84.36 L 5.494 54.88 L 81.606 54.88 L 81.606 54.88 Z  M 157.718 115.582 L 157.718 115.582 L 157.718 115.582 Q 157.718 129.116 148.606 136.218 L 148.606 136.218 L 148.606 136.218 Q 139.494 143.32 123.548 143.32 L 123.548 143.32 L 123.548 143.32 Q 114.704 143.32 105.927 141.042 L 105.927 141.042 L 105.927 141.042 Q 97.15 138.764 92.058 134.208 L 92.058 134.208 L 94.738 112.634 L 109.076 113.974 L 108.942 124.56 L 108.942 124.56 Q 113.498 126.972 116.714 127.441 L 116.714 127.441 L 116.714 127.441 Q 119.93 127.91 122.208 127.91 L 122.208 127.91 L 122.208 127.91 Q 129.31 127.91 133.866 126.101 L 133.866 126.101 L 133.866 126.101 Q 138.422 124.292 138.422 117.726 L 138.422 117.726 L 138.422 117.726 Q 138.422 110.49 133.062 108.011 L 133.062 108.011 L 133.062 108.011 Q 127.702 105.532 120.466 104.192 L 120.466 104.192 L 120.466 104.192 Q 114.168 103.12 107.803 101.043 L 107.803 101.043 L 107.803 101.043 Q 101.438 98.966 97.15 94.209 L 97.15 94.209 L 97.15 94.209 Q 92.862 89.452 92.862 80.072 L 92.862 80.072 L 92.862 80.072 Q 92.862 65.466 102.778 59.503 L 102.778 59.503 L 102.778 59.503 Q 112.694 53.54 124.486 53.54 L 124.486 53.54 L 124.486 53.54 Q 133.062 53.54 140.834 56.153 L 140.834 56.153 L 140.834 56.153 Q 148.606 58.766 152.76 63.188 L 152.76 63.188 L 153.564 82.082 L 139.226 83.422 L 138.02 73.238 L 138.02 73.238 Q 134.67 70.96 131.253 70.156 L 131.253 70.156 L 131.253 70.156 Q 127.836 69.352 124.62 69.352 L 124.62 69.352 L 124.62 69.352 Q 119.26 69.352 115.709 71.228 L 115.709 71.228 L 115.709 71.228 Q 112.158 73.104 112.158 77.794 L 112.158 77.794 L 112.158 77.794 Q 112.158 83.288 116.714 85.432 L 116.714 85.432 L 116.714 85.432 Q 121.27 87.576 127.166 88.916 L 127.166 88.916 L 127.166 88.916 Q 132.526 89.988 139.695 91.931 L 139.695 91.931 L 139.695 91.931 Q 146.864 93.874 152.291 99.167 L 152.291 99.167 L 152.291 99.167 Q 157.718 104.46 157.718 115.582 Z  M 187.332 141.98 L 166.83 141.98 L 166.83 120.138 L 187.332 120.138 L 187.332 141.98 L 187.332 141.98 Z " fill="rgb(0,86,179)"/></g></svg>