<svg width="100" height="100" viewBox="0 0 100 100" fill="none" xmlns="http://www.w3.org/2000/svg">
<rect x="1.5" y="1.5" width="97" height="97" stroke="black" stroke-width="3"/>
<path d="M34.7443 38.8182V44.6847H16.244V38.8182H34.7443ZM20.8114 31.108H28.396V61.3203C28.396 62.34 28.5496 63.1222 28.8569 63.6669C29.1781 64.1977 29.5972 64.5608 30.114 64.7564C30.6308 64.9519 31.2035 65.0497 31.832 65.0497C32.3069 65.0497 32.7399 65.0148 33.131 64.945C33.5361 64.8751 33.8434 64.8123 34.0529 64.7564L35.331 70.6857C34.9259 70.8254 34.3462 70.979 33.592 71.1467C32.8517 71.3143 31.9438 71.4121 30.8683 71.44C28.9686 71.4959 27.2576 71.2095 25.7351 70.581C24.2126 69.9384 23.0044 68.9467 22.1104 67.6058C21.2305 66.2649 20.7975 64.5888 20.8114 62.5774V31.108ZM66.0619 47.3246L59.1478 48.0788C58.9523 47.3804 58.6101 46.724 58.1212 46.1094C57.6463 45.4948 57.0038 44.9989 56.1936 44.6218C55.3835 44.2447 54.3918 44.0561 53.2185 44.0561C51.6401 44.0561 50.3132 44.3983 49.2377 45.0827C48.1761 45.7672 47.6523 46.6541 47.6663 47.7436C47.6523 48.6795 47.9945 49.4407 48.6929 50.0273C49.4053 50.614 50.5786 51.0959 52.2128 51.473L57.7021 52.6463C60.7471 53.3028 63.0099 54.3434 64.4905 55.7681C65.9851 57.1928 66.7393 59.0575 66.7533 61.3622C66.7393 63.3875 66.1457 65.1754 64.9724 66.7259C63.8131 68.2623 62.1998 69.4635 60.1325 70.3295C58.0653 71.1955 55.6908 71.6286 53.009 71.6286C49.07 71.6286 45.8994 70.8045 43.4969 69.1562C41.0944 67.4941 39.6627 65.1824 39.2018 62.2212L46.5977 61.5089C46.933 62.9615 47.6453 64.058 48.7348 64.7983C49.8243 65.5386 51.242 65.9087 52.988 65.9087C54.7899 65.9087 56.2355 65.5386 57.325 64.7983C58.4285 64.058 58.9802 63.1431 58.9802 62.0536C58.9802 61.1317 58.624 60.3705 57.9117 59.7699C57.2133 59.1693 56.1238 58.7083 54.6432 58.3871L49.1539 57.2347C46.067 56.5922 43.7832 55.5097 42.3026 53.9872C40.8221 52.4508 40.0887 50.5092 40.1027 48.1626C40.0887 46.1792 40.6265 44.4612 41.716 43.0085C42.8195 41.5419 44.3489 40.4105 46.3044 39.6143C48.2739 38.8042 50.5437 38.3991 53.1137 38.3991C56.885 38.3991 59.8532 39.2023 62.0182 40.8086C64.1972 42.4149 65.5451 44.5869 66.0619 47.3246ZM77.6796 71.4609C76.4085 71.4609 75.319 71.014 74.4111 70.12C73.5032 69.2261 73.0563 68.1366 73.0702 66.8516C73.0563 65.5945 73.5032 64.5189 74.4111 63.625C75.319 62.7311 76.4085 62.2841 77.6796 62.2841C78.9088 62.2841 79.9773 62.7311 80.8852 63.625C81.8071 64.5189 82.275 65.5945 82.289 66.8516C82.275 67.7036 82.0515 68.4788 81.6185 69.1772C81.1995 69.8756 80.6408 70.4343 79.9424 70.8533C79.258 71.2584 78.5037 71.4609 77.6796 71.4609Z" fill="black"/>
</svg>
